inDegrees=yes
name=results_flex.mot
DataType=double
version=3
OpenSimVersion=4.3-2021-08-27-4bc7ad9
endheader
time	pelvis_tilt	pelvis_list	pelvis_rotation	pelvis_tx	pelvis_ty	pelvis_tz	hip_flexion_r	hip_adduction_r	hip_rotation_r	knee_angle_r	knee_angle_r_beta	ankle_angle_r	subtalar_angle_r	mtp_angle_r	hip_flexion_l	hip_adduction_l	hip_rotation_l	knee_angle_l	knee_angle_l_beta	ankle_angle_l	subtalar_angle_l	mtp_angle_l	lumbar_extension	lumbar_bending	lumbar_rotation	arm_flex_r	arm_add_r	arm_rot_r	elbow_flex_r	pro_sup_r	wrist_flex_r	wrist_dev_r	arm_flex_l	arm_add_l	arm_rot_l	elbow_flex_l	pro_sup_l	wrist_flex_l	wrist_dev_l
25	-0.0022457632390308	0.006539494685262344	-89.99363525036543	0	0.9399999999999999	0	45.02569809465101	-9.977022267058494	0	59.38602148794646	1.036481604624768	-4.985472642937769	0	0	45.02569809465101	-9.977022267058494	0	59.38602148794646	1.036481604624768	-4.985472642937769	0	0	0.02465866553642775	2.129595934855498	-0.06733548792734619	6.738321976908714	7.116085761453468	-9.817793618863357	86.97167567340094	45.02466327507979	0	0	0	-13.08544751180033	0	75.26470589531922	45.02466327507979	0	0
26	-0.0008502672937550121	0.02258370027245725	-89.99381783145051	0	0.9399999999999999	0	45.02568939519905	-9.977049471311839	0	59.38618453974635	1.036484450415527	-4.985495081854925	0	0	45.02568939519905	-9.977049471311839	0	59.38618453974635	1.036484450415527	-4.985495081854925	0	0	0.05273389958824194	2.128938906593531	-0.07257972530033124	6.893867193095669	6.137677143513444	-9.433646567706697	84.44723829390033	45.02464018107197	0	0	0	-13.08577921768724	0	75.26461634414734	45.02464018107197	0	0
27	0.001772212701950622	0.0003488544617689347	-90.00049550058459	0	0.9399999999999999	0	45.02556782649543	-9.977315549101075	0	59.38904712965228	1.03653441203452	-4.985697605815651	0	0	45.02556782649543	-9.977315549101075	0	59.38904712965228	1.03653441203452	-4.985697605815651	0	0	0.01144102111851254	2.126960156377512	-0.060269551935247	6.613546087012684	5.301445810202853	-9.767517644507656	81.37179753693937	45.02439791477231	0	0	0	-13.09125393186107	0	75.26336493627721	45.02439791477231	0	0
28	-0.0007052260693358674	0.01599878533103299	-89.99686869146407	0	0.9399999999999999	0	45.02539280977037	-9.977691014832299	0	59.39320512030589	1.036606982661693	-4.98598185365535	0	0	45.02539280977037	-9.977691014832299	0	59.39320512030589	1.036606982661693	-4.98598185365535	0	0	0.04095409746417138	2.127901973772733	-0.0663052642366723	5.628380430689782	3.8784771657099	-9.368753538474097	76.47664664835851	45.02405453990728	0	0	0	-13.09919471423692	0	75.26156334388699	45.02405453990728	0	0
29	0.002711259627995709	0.000108019571914779	-90.00111028397434	0	0.9399999999999999	0	45.02525529662346	-9.977986818767684	0	59.39644386183017	1.036663509364912	-4.986205649925637	0	0	45.02525529662346	-9.977986818767684	0	59.39644386183017	1.036663509364912	-4.986205649925637	0	0	0.01166648491068883	2.126225409843628	-0.05896488846990298	5.80905513578485	2.891926861798817	-9.317591135618912	69.49239342299808	45.02378400190393	0	0	0	-13.10541665527447	0	75.26014780681822	45.02378400190393	0	0
30	-0.0008855263783782876	0.01886763418181124	-89.99775722645566	0	0.9399999999999999	0	45.02508188566012	-9.97835351161868	0	59.40056014385387	1.036735352039166	-4.986481856773201	0	0	45.02508188566012	-9.97835351161868	0	59.40056014385387	1.036735352039166	-4.986481856773201	0	0	0.04604480763374168	2.127953969468293	-0.06356992268752461	5.308410751408227	1.117192553430648	-8.293058373808279	63.08647064203368	45.02344739671769	0	0	0	-13.11331515507458	0	75.25836274409235	45.02344739671769	0	0
31	-0.00532411893282878	0.0356733233283133	-89.99863116588413	0	0.9399999999999999	0	45.02498897503423	-9.978549825969472	0	59.40275091016589	1.036773588124453	-4.986629507535755	0	0	45.02498897503423	-9.978549825969472	0	59.40275091016589	1.036773588124453	-4.986629507535755	0	0	0.07680001640646594	2.126445239916992	-0.05172099652392352	4.18782684908009	-1.183699172648544	-6.905672065132496	58.60681363693397	45.02326704783112	0	0	0	-13.11754113515597	0	75.25740633799329	45.02326704783112	0	0
32	0.0113589607032864	-0.003347996711276508	-89.99974029588986	0	0.9399999999999999	0	45.02484596341966	-9.978862279713256	0	59.40605354092436	1.036831229905166	-4.986866362491898	0	0	45.02484596341966	-9.978862279713256	0	59.40605354092436	1.036831229905166	-4.986866362491898	0	0	0.01185701695333369	2.124573411780718	-0.05806214707343119	5.081557766444951	-2.803955815234684	-6.089757115668516	51.05471048061367	45.02298196568579	0	0	0	-13.1239573016031	0	75.255934200258	45.02298196568579	0	0
33	0.005750903554402591	0.0006252066560792336	-90.00151853392546	0	0.9399999999999999	0	45.02473773956161	-9.979091672842317	0	59.40858529604563	1.036875417367886	-4.987038857455641	0	0	45.02473773956161	-9.979091672842317	0	59.40858529604563	1.036875417367886	-4.987038857455641	0	0	0.01051850256092096	2.12536836967	-0.0577621002961294	5.322271252713178	-3.862312997323873	-4.713415780820592	44.02379663421926	45.02277127222779	0	0	0	-13.12886777397735	0	75.25482016228715	45.02277127222779	0	0
34	-0.003842223527831749	0.0193144163402244	-90.00491710090475	0	0.9399999999999999	0	45.02465841128627	-9.979258815772093	0	59.41044246904346	1.036907831151478	-4.987164305207703	0	0	45.02465841128627	-9.979258815772093	0	59.41044246904346	1.036907831151478	-4.987164305207703	0	0	0.04783071688337003	2.128334453223192	-0.04942630871469748	4.245759586211308	-4.811496187721154	-3.835347020531716	39.47448856567127	45.0226175320073	0	0	0	-13.1324739320609	0	75.25400357057482	45.0226175320073	0	0
35	0.001393696331171726	0.001584788243563882	-90.00029347201205	0	0.9399999999999999	0	45.0245763191035	-9.979434050240796	0	59.41234993978961	1.036941122796383	-4.987296274990642	0	0	45.0245763191035	-9.979434050240796	0	59.41234993978961	1.036941122796383	-4.987296274990642	0	0	0.01200656036646994	2.12643164245925	-0.05810188945606556	4.323895903534639	-5.0026468710933	-2.591953398800151	33.50048928551898	45.02245680609882	0	0	0	-13.13618753272409	0	75.25315852754872	45.02245680609882	0	0
36	-0.0004040059988317351	0.01654663161335021	-90.00278929817748	0	0.9399999999999999	0	45.02452190879259	-9.979552715180555	0	59.41360225880131	1.036962979886423	-4.987386190336564	0	0	45.02452190879259	-9.979552715180555	0	59.41360225880131	1.036962979886423	-4.987386190336564	0	0	0.03818084285104047	2.128513978858589	-0.05020380983373628	4.019077339855944	-5.4999692222214	-2.278014875554383	29.34602634916395	45.02234850064308	0	0	0	-13.13863083444482	0	75.25259843690128	45.02234850064308	0	0
37	-0.3731313680613477	-0.7346063083647948	-89.4871265766637	0	0.9399999999999999	0	45.02446956358114	-9.979667561170778	0	59.41480380294991	1.036983950787924	-4.987473353191417	0	0	45.02446956358114	-9.979667561170778	0	59.41480380294991	1.036983950787924	-4.987473353191417	0	0	-0.6945239412226611	2.511579924664284	-0.5761112853114304	4.052410482442584	-5.48889042662183	-0.9803294041517411	23.40681998368149	45.02224382162206	0	0	0	-13.14097656351653	0	75.25205960401217	45.02224382162206	0	0
38	-0.3866504714594492	-0.7366105447892769	-89.48194040120583	0	0.9399999999999999	0	45.0244276301315	-9.979761192924245	0	59.41575883444253	1.037000619231931	-4.987544750856626	0	0	45.0244276301315	-9.979761192924245	0	59.41575883444253	1.037000619231931	-4.987544750856626	0	0	-0.3471862202146409	3.239674053569339	-1.338153522269975	3.340069609882284	-6.658820264358912	0.1453982022257332	18.94049598241334	45.02215881030099	0	0	0	-13.14284385055	0	75.25162794798678	45.02215881030099	0	0
